<svg viewBox="0 0 365.625 400.1" xmlns="http://www.w3.org/2000/svg"><path fill-rule="evenodd" d="M146.301 2.526c-5.902 1.173-14.163 3.272-18.36 4.666l-7.629 2.534v26.191l-6.641 1.664C80.19 45.972 21.874 71.018 21.875 77.006c0 2.773-2.737 41.917-16.431 235.02C2.449 354.247 0 391.337 0 394.446v5.653h59.375v-15.234c.003-45.699 6.993-124.89 14.205-160.938 1.439-7.194 2.108-8.203 5.437-8.203h3.795v34.965c0 40.932-2.168 36.866 22.266 41.758l18.359 3.676v6.705c0 6.156-.288 6.638-3.516 5.882-7.17-1.68-34.376-7.048-35.718-7.048-.765 0-1.391 11.295-1.391 25.1v25.101l12.891 5.922c23.123 10.622 48.107 17.724 69.531 19.764l11.328 1.08V27.126l-12.109-.947c-22.723-1.775-31.08-7.408-17.578-11.849 9.939-3.27 60.677-3.343 69.531-.1 12.398 4.541 4.97 9.877-16.532 11.875l-10.812 1.005v351.563l12.416-1.035c21.973-1.833 58.37-13.096 74.693-23.115l5.079-3.116v-24.873c0-13.68-.626-24.872-1.391-24.872-1.342 0-28.549 5.368-35.719 7.048-3.228.756-3.515.274-3.515-5.882v-6.705l18.359-3.698c10.098-2.034 19.238-4.027 20.312-4.429 1.485-.556 1.954-9.338 1.954-36.605v-35.875l4.278.495c4.856.561 4.341-1.293 9.675 34.87 4.858 32.931 7.853 69.56 8.817 107.812.476 18.906 1.186 35.957 1.577 37.89.708 3.498.866 3.516 30.37 3.516h29.658l-.002-5.078c-.001-4.457-11.411-157.992-20.326-273.503-1.71-22.165-3.11-41.915-3.11-43.89 0-6.575-66.616-35.59-90.468-39.404l-6.407-1.024V9.562l-8.236-2.394c-24.885-7.234-66.915-9.384-90.775-4.642"/></svg>