<svg viewBox="0 0 1024 1024" xmlns="http://www.w3.org/2000/svg"><g transform="matrix(5.46133 0 0 -5.46133 765.424 2013.635)"><circle cx="-46.403" cy="-274.958" r="90" fill="#ffe6d5" fill-rule="evenodd" transform="scale(1 -1)"/><path fill="#83331b" d="m-108.102 258.507 16.177 19 121.483.404-15.767-19.404h-121.893"/><path fill="#f8a37b" d="M-108.101 258.507v-51.063a18.027 8.163 0 0 0 16.264-8.115H2.492a13.605 8.503 0 0 0-1.131 3.393 13.605 8.503 0 0 0 12.43 8.47v47.315z"/><path fill="#da845d" d="M-38.324 249.896c1.962 1.06 4.991 4.244 3.122 7.428-.346.589-.684.968-1.008 1.183h8.145c-1.06-2.333-4.89-5.155-4.89-5.155s-.313-.606-2.01-1.941c-.962-.754-2.342-1.237-3.359-1.515m-24.04.13c-1.002.466-2.456 1.263-3.479 2.349-1.708 1.813-2.052 4.19-2.052 4.19l-1.208 1.942h4.853c-.324-.215-.66-.594-1.007-1.183-1.797-3.062.935-6.124 2.892-7.297m22.287.96c-1.065.105-3.04.373-5.015 1.03-2.91.97-4.609 3.154-4.609 3.154s-3.275-2.001-7.64-2.796c-1.459-.265-2.409-.354-3.029-.354h-.029c-.087 1.464-.387 3.029-.387 3.029s-.827 2.653-2.068 3.457h25.251c-1.24-.804-2.069-3.457-2.069-3.457s-.464-2.425-.405-4.062"/><path fill="#dee6e3" d="M-60.787 255.05s.923-4.821 0-5.458c-.922-.637-6.926 3.548-4.47 7.732 2.456 4.184 4.47-2.274 4.47-2.274m21.114 0s-.922-4.821 0-5.458c.923-.637 6.927 3.548 4.471 7.732-2.456 4.184-4.47-2.274-4.47-2.274"/><path fill="#d4541e" d="M-75.274 295.46c1.117-5.335-2.302-10.566-7.637-11.683-5.335-1.117-10.565 2.302-11.682 7.637-1.117 5.335 2.302 10.566 7.637 11.683 5.335 1.117 10.565-2.302 11.682-7.637"/><path fill="#852e1b" d="M-79.137 301.41a9.83 9.83 0 0 1-7.819 1.687c-5.335-1.117-8.754-6.348-7.637-11.683a9.818 9.818 0 0 1 1.282-3.177c4.35 1.479 10.933 5.007 14.174 13.174"/><path fill="#fff" d="M-79.556 294.563a5.495 5.495 0 1 0-10.756-2.25 5.495 5.495 0 0 0 10.756 2.25"/><path fill="#e2591e" d="M-11.97 297.295a5.461 5.461 0 0 0-1.736 10.639c1.577.545 9.257 3.6 6.96 10.765-1.66 5.18-4.8 5.934-14.08 6.919-1.703.18-3.462.368-5.29.629-6.567.938-11.396 3.654-14.35 8.072-4.313 6.445-2.623 13.75-2.416 14.562a5.46 5.46 0 1 0 10.582-2.697c.002 0-.74-3.391.946-5.845 1.168-1.701 3.45-2.804 6.783-3.281 1.632-.233 3.292-.41 4.897-.58 8.623-.915 19.355-2.056 23.327-14.443 4.228-13.187-6.004-21.855-13.912-24.464a5.468 5.468 0 0 0-1.712-.276"/><path fill="#852e1b" d="m-31.354 340.339-.162.262c-3.6-2.3-8.146-2.791-10.69-2.868a16.51 16.51 0 0 1 1.74-3.414c.965-1.445 2.152-2.688 3.515-3.766 4.784.793 8.636 4.38 10.757 6.815-2.455.573-4.194 1.564-5.16 2.97m11.595-14.838c3.913-.432 6.655-.861 8.622-1.687 1.35 2.24 3.232 5.957 3.93 10.147-2.897 1.167-6.016 1.739-9.03 2.126.263-2.716.078-7.398-3.522-10.585M4.156 311.99c.613 2.489.673 5.257-.025 8.279a11.04 11.04 0 0 0-4.202-2.11c-2.954-.768-5.066-.721-6.408-.51.581-2.946-.577-5.127-2.15-6.673 4.852-2.12 9.593-.653 12.785 1.015"/><path fill="#83bad2" d="M-6.447 314.857c-.003 0-.006.003-.009.004.012.064.024.128.034.193l.001.002.028.238c.031.25.052.506.056.77l.001.16a7.664 7.664 0 0 1-.08 1.047v-.001c-.066.45-.167.916-.322 1.404.111-.352.2-.693.265-1.025h-.006c.201-1.02.194-1.95.032-2.792m-.292 3.82-.008.022c-.856 2.67-2.105 4.165-4.386 5.12 2.281-.955 3.53-2.45 4.386-5.12l.008-.022m-13.018 6.825c-.347.039-.704.077-1.07.116-1.702.18-3.46.368-5.29.629l-.146.022.147-.022c1.828-.261 3.587-.45 5.29-.63.365-.038.722-.076 1.07-.115m-6.54.772-.024.003.023-.003m-.075.01h-.003.003"/><path fill="#ba4a1f" d="M3.323 309.507c-.608.453-1.229.89-1.865 1.31.962.335 1.851.734 2.646 1.147l.037-.026a16.41 16.41 0 0 0-.818-2.431m-7.988 8.008c-.71 0-1.312.056-1.808.134a9.692 9.692 0 0 1-.265 1.025v.003c-.004.007-.006.015-.009.022-.856 2.67-2.105 4.165-4.386 5.12.494.82 1.06 1.84 1.612 3.007 2.75-1.108 4.625-2.821 6.016-5.603.566-1.131.757-2.351.695-3.592a15.624 15.624 0 0 0-1.855-.116m-15.092 7.987c-.347.039-.704.077-1.07.116-1.702.18-3.46.368-5.289.629l-.147.022a.398.398 0 0 0-.034.005c-.008 0-.015.002-.023.003l-.052.008h-.003c-4.878.737-8.769 2.48-11.64 5.178.341-.316.696-.62 1.064-.91.568.094 1.123.228 1.664.394 2.752-.893 6.221-1.645 10.437-1.887 2.795-.16 5.246-.326 7.403-.556a10.023 10.023 0 0 0-2.31-3.002"/><path fill="#6f2717" d="M-36.95 330.553c-.369.29-.724.594-1.065.91-.306.287-.6.585-.883.893a32.585 32.585 0 0 1 3.611-1.41 12.75 12.75 0 0 0-1.664-.393m25.818-6.733c-1.97.825-4.707 1.249-8.624 1.682a10.023 10.023 0 0 1 2.31 3.002c3.255-.346 5.842-.838 7.926-1.678a34.463 34.463 0 0 0-1.612-3.006m12.591-13.002a38.286 38.286 0 0 1-7.905 4.039c.162.843.17 1.772-.032 2.793l.006-.001a11.636 11.636 0 0 1 1.808-.134c.552 0 1.17.034 1.855.116a10.66 10.66 0 0 0-.219-1.652 39.164 39.164 0 0 0 7.133-4.015 19.965 19.965 0 0 0-2.646-1.146"/><path fill="#e66733" d="M1.956 321.14s-4.428 6.195-10.044 9.266c.233.715.442 1.456.617 2.217.927-.436 1.771-.935 2.477-1.507 4.964-4.02 6.95-9.976 6.95-9.976m-18.127 12.572c-3.248 1.173-5.535 1.865-5.535 1.865s2.427-.091 5.54-.568a16.57 16.57 0 0 0-.005-1.297"/><path fill="#94401d" d="M-8.088 330.406c-.478.26-.964.5-1.456.71a126.006 126.006 0 0 1-6.627 2.596c.02.453.02.888.005 1.297 2.763-.423 6.066-1.15 8.695-2.386a25.89 25.89 0 0 0-.617-2.217"/><path fill="#ef5d22" d="M-57.687 303.784s14.474 17.064 43.825 12.94c29.351-4.124 40.267-42.45 40.267-42.45l-12.614-15.767h-71.478v45.277"/><path fill="#852e1b" d="M-53.065 307.89c3.118.854 8.074 1.536 15.715 1.01 18.532-1.272 42.591-30.99 42.591-30.99s-10.668 33.894-44.619 36.943c-6.085-1.951-10.642-4.693-13.687-6.963"/><path fill="#c74d1f" d="M5.028 263.299H.844c-1.15 3.215-6.923 18.376-16.16 26.318-7.614 6.544-18.655 14.166-32.41 14.879a40.95 40.95 0 0 0 2.091.054c9.92 0 18.501-3.657 25.49-8.144.021.129.034.258.061.388a9.768 9.768 0 0 0 1.665 3.758c5.534-3.983 10.713-8.764 14.808-12.906a9.888 9.888 0 0 0-3.497-2.16c6.883-8.214 11.163-19.47 12.136-22.187m-6.338 27.706c-2.837 4.334-6.709 9.107-11.819 13.25.15.042.3.08.451.116l.167.04c.26.057.521.1.786.135l.227.033c.25.027.501.04.754.048.091.003.181.012.273.012h.023c.245 0 .492-.016.74-.034.09-.006.18-.006.271-.015a9.817 9.817 0 0 0 1.035-.16c5.335-1.116 8.754-6.346 7.637-11.681a9.844 9.844 0 0 0-.492-1.606l-.034-.091a.924.924 0 0 0-.019-.047"/><path fill="#6f2717" d="M-3.61 287.646c-4.096 4.142-9.275 8.923-14.809 12.906a9.94 9.94 0 0 0 2.198 2.193c.27.196.548.378.835.545l.017.01c.278.16.564.309.857.443l.053.025c.278.125.562.236.852.335l.105.038c.124.04.248.078.373.114 5.11-4.143 8.982-8.916 11.82-13.25a9.777 9.777 0 0 0-.738-1.433v-.001a9.854 9.854 0 0 0-1.564-1.925"/><path fill="#d4541e" d="M-24.269 296.794c-1.117-5.335 2.303-10.565 7.637-11.682 5.335-1.117 10.566 2.302 11.683 7.637 1.117 5.335-2.302 10.565-7.637 11.682-5.335 1.117-10.565-2.302-11.683-7.637"/><path fill="#852e1b" d="M-20.406 302.745a9.832 9.832 0 0 0 7.82 1.686c5.335-1.117 8.754-6.347 7.637-11.682a9.837 9.837 0 0 0-1.282-3.178c-4.35 1.48-10.934 5.007-14.175 13.174"/><path fill="#fff" d="M-19.986 295.897a5.494 5.494 0 1 1 10.756-2.251 5.494 5.494 0 0 1-10.756 2.25"/><path fill="#f46a2f" d="m-95.609 258.507-4.852 4.94s15.465 31.449 36.75 38.724c21.286 7.276 38.024-3.64 48.394-12.554 10.37-8.915 16.373-26.926 16.373-26.926l-3.82-4.184h-92.845"/><path fill="#852e1b" d="M-71.124 289.57s17.435 13.738 20.853 13.738c3.42 0 20.078-12.054 20.078-12.054l-2.762-3.317s-14.548 11.807-17.316 11.807c-2.768 0-16.459-11.807-16.459-11.807l-4.394 1.634"/><path fill="#852e1b" d="M-62.485 284.293s10.016 8.49 12.885 8.49c2.87 0 12.401-7.398 12.401-7.398l-2.597-5.067s-7.579 8.22-9.804 8.22c-2.225 0-10.777-7.641-10.777-7.641l-2.108 3.396"/><path fill="#fff" d="m-100.46 263.447 13.49 4.52s-4.303 14.009 8.25 20.74c12.553 6.73 18.102-.182 19.83-4.184 1.73-4.003 1.73-14.555 1.73-14.555h14.953s-.157 15.707 6.271 20.194c6.428 4.488 16.095 5.094 19.873-3.274 3.778-8.37 0-15.646 0-15.646l17.12-8.551-3.82-4.184H-95.61l-4.852 4.94"/><path fill="#fddd04" d="M-60.787 277.91a5.943 5.943 0 1 0-11.885 0 5.943 5.943 0 0 0 11.885 0"/><path fill="#391913" d="M-62.485 277.91a4.246 4.246 0 1 0-8.49.002 4.246 4.246 0 0 0 8.49-.001"/><path fill="#fff" d="M-67.622 280.554a1.751 1.751 0 1 0-3.502 0 1.751 1.751 0 0 0 3.502 0"/><path fill="#fddd04" d="M-27.012 277.91a5.943 5.943 0 1 0-11.886.001 5.943 5.943 0 0 0 11.886 0"/><path fill="#391913" d="M-28.71 277.91a4.246 4.246 0 1 0-8.49.002 4.246 4.246 0 0 0 8.49-.001"/><path fill="#fff" d="M-33.847 280.554a1.751 1.751 0 1 0-3.502 0 1.751 1.751 0 0 0 3.502 0"/><path fill="#c74d1f" d="M13.791 258.507H1.421l3.82 4.184s-.072.214-.213.608h8.763l11.536 14.197c.723-1.99 1.073-3.206 1.078-3.222l-12.614-15.767"/><path fill="#a33f1e" d="M1.42 258.507h-4.184l3.82 4.184s-.07.214-.212.608h4.184c.141-.394.213-.608.213-.608l-3.82-4.184"/><path fill="#de581d" d="m1.056 262.69-1.217.609H.844c.141-.394.212-.608.212-.608"/><path fill="#d5d0cd" d="M-2.764 258.507h-92.845l-4.706 4.792H-.16l1.217-.608-3.82-4.184"/><path fill="#fff" d="M-58.975 271.483s-5.68-1.462-7.755-6.855c-2.075-5.394.745-9.305 5.475-10.397 4.731-1.091 11.553 2.456 11.553 2.456s5.602-5.458 12.352-4.093c6.75 1.364 8.934 9.096 5.66 13.736-3.276 4.639-11.28 5.153-11.28 5.153s-12.18-3.488-16.005 0"/><path fill="#a6b9b5" d="M-49.702 256.687s.282-.27.773-.664v8.605a.672.672 0 0 1-1.342 0v-8.217c.356.167.57.276.57.276"/><path fill="#852e1b" d="M-42.306 265.564s4.394 5.176 1.554 7.403c-2.84 2.228-5.535-1.611-9.1-1.267-3.567.344-7.302 3.095-8.826.572-1.523-2.522 2.303-5.562 2.303-5.562s.908 2.659 3.196 1.379c2.29-1.28.361-3.99.361-3.99s1.685-1.104 3.06-1.331c1.373-.228 3.508 1.549 3.508 1.549s-1.109 3.074 1.246 4.262c2.356 1.189 2.698-3.015 2.698-3.015m-43.599 15.964s-3.367-4.374-3.094-10.832c.273-6.46 9.56-12.19 9.56-12.19l-3.656 5.689a3.291 3.291 0 0 0 .717 4.353l5.66 4.513s-7.642-2.456-8.915-.637c-1.274 1.82-.272 9.104-.272 9.104m70.447 3.852s-.525-5.68-1.92-8.498c-1.396-2.82-6.217-1.547-6.217-1.547s5.367-2.73 5.367-4.457c0-1.73-3.639-7.186-3.639-7.186s11.817 7.446 6.41 21.688m-70.57-26.873s-2.365 1.758-3.882 4.245c-1.516 2.486-2 4.002-2 4.002s-.183-3.275.727-5.458c.91-2.183 1.637-2.79 1.637-2.79h3.518m72.287.001s2.208 1.81 4.123 5.185c1.915 3.374 2.608 7.79 2.608 7.79s.91-6.365.303-9.094c-.607-2.73-1.577-3.881-1.577-3.881h-5.458m8.953 55.667c-2.809 1.198-5.822 2.093-9.074 2.55a65.16 65.16 0 0 1-7.739.628c4.835-1.15 14.841-4.264 22.793-11.581 10.901-10.03 15.146-19.22 15.146-19.22s-6.557 18.098-21.126 27.623"/><path fill="#852e1b" d="M1.956 301.95s7.105-5.585 11.35-16.57c4.245-10.985 4.124-13.897 4.124-13.897L-.642 294.165l12.008-11.037s-.486 6.443-9.41 18.823"/><path fill="#f6854f" d="m29.56 277.91-15.768-19.403v-44.944a6.973 12.925 0 0 0 4.064 2.423 6.973 12.925 0 0 0 3.898-2.208l7.805 14.164z"/><path fill="#852e1b" d="M-3.31 240.435h7.034v5.97h3.188L.207 254.03l-6.705-7.626h3.188v-5.97m3.517-1.814h-6.705v-2.31h13.41v2.31H.207"/><path fill="#f06c34" d="M-4.287 310.02c-3.32 1.214-7.933 2.459-13.09 2.58a84.09 84.09 0 0 1-2.016.023c-2.736 0-5.535-.12-8.147-.292a47.617 47.617 0 0 1-4.25 1.26c3.254.75 7.275 1.375 11.627 1.375 1.151 0 2.323-.044 3.511-.14a37.464 37.464 0 0 0 4.61-.658c2.49-1.076 5.144-2.437 7.755-4.148"/><path fill="#94401d" d="M-39.796 311.084s3.151 1.392 8.006 2.508a47.617 47.617 0 0 0 4.25-1.261c-6.75-.447-12.256-1.247-12.256-1.247m40.852-3.456s-2.028 1.18-5.343 2.392c-2.61 1.71-5.266 3.072-7.755 4.148 9.116-1.9 13.098-6.54 13.098-6.54"/><path fill="#e66001" fill-rule="evenodd" d="M-46.403 368.708a93.75 93.75 0 0 1-93.75-93.75 93.75 93.75 0 0 1 93.75-93.75 93.75 93.75 0 0 1 93.75 93.75 93.75 93.75 0 0 1-93.75 93.75zm0-18.75a75 75 0 0 0 75-75 75 75 0 0 0-75-75 75 75 0 0 0-75 75 75 75 0 0 0 75 75z"/><path fill="#fff" d="M-31.354 340.339c-1.686 2.454-.944 5.845-.946 5.845a5.46 5.46 0 1 1-10.582 2.697c-.2-.781-1.757-7.578 1.972-13.834 2.907.545 7.163 1.779 10.204 4.534-.24.239-.463.488-.648.758"/></g></svg>